<svg xmlns="http://www.w3.org/2000/svg" width="1600" height="1000" viewBox="0 0 1600 1000" role="img" aria-labelledby="title desc">
  <title id="title">Practical IT Support</title>
  <desc id="desc">Abstract dark article image for practical IT support.</desc>
  <rect width="1600" height="1000" fill="#080b11"/>
  <circle cx="430" cy="230" r="320" fill="#10b981" opacity=".13"/>
  <circle cx="1140" cy="700" r="380" fill="#f43f5e" opacity=".12"/>
  <rect x="180" y="140" width="1240" height="720" rx="36" fill="#11151d" stroke="#fff" stroke-opacity=".12"/>
  <rect x="260" y="240" width="450" height="520" rx="28" fill="#0c1017" stroke="#fff" stroke-opacity=".08"/>
  <rect x="780" y="240" width="560" height="150" rx="28" fill="#171c25" stroke="#fff" stroke-opacity=".08"/>
  <rect x="780" y="460" width="560" height="300" rx="28" fill="#171c25" stroke="#fff" stroke-opacity=".08"/>
  <path d="M330 360h280M330 462h210M330 564h250M330 666h160M850 552h300M850 636h220" stroke="#f8fafc" stroke-opacity=".34" stroke-width="12" stroke-linecap="round"/>
  <path d="M1190 542l34 34 78-92M1190 632l34 34 78-92" fill="none" stroke="#34d399" stroke-width="12" stroke-linecap="round" stroke-linejoin="round"/>
  <text x="840" y="330" fill="#f8fafc" font-family="Inter,Arial,sans-serif" font-size="42" font-weight="300">Practical IT Support</text>
</svg>
