<svg xmlns="http://www.w3.org/2000/svg" width="1600" height="1000" viewBox="0 0 1600 1000" role="img" aria-labelledby="title desc">
  <title id="title">Fullstack Context</title>
  <desc id="desc">Abstract dark article image for fullstack product context.</desc>
  <rect width="1600" height="1000" fill="#080a10"/>
  <circle cx="820" cy="500" r="430" fill="#818cf8" opacity=".13"/>
  <circle cx="1220" cy="210" r="300" fill="#22d3ee" opacity=".12"/>
  <rect x="176" y="150" width="1248" height="700" rx="36" fill="#11151d" stroke="#fff" stroke-opacity=".12"/>
  <rect x="260" y="370" width="280" height="260" rx="30" fill="#171c25" stroke="#fff" stroke-opacity=".1"/>
  <rect x="660" y="250" width="280" height="500" rx="30" fill="#171c25" stroke="#fff" stroke-opacity=".1"/>
  <rect x="1060" y="370" width="280" height="260" rx="30" fill="#171c25" stroke="#fff" stroke-opacity=".1"/>
  <path d="M540 500h120M940 500h120" stroke="#fff" stroke-opacity=".32" stroke-width="12" stroke-linecap="round"/>
  <path d="M616 456l44 44-44 44M1016 456l44 44-44 44" fill="none" stroke="#67e8f9" stroke-width="12" stroke-linecap="round" stroke-linejoin="round"/>
  <path d="M324 462h152M324 538h110M724 382h152M724 500h100M724 618h142M1124 462h152M1124 538h118" stroke="#f8fafc" stroke-opacity=".38" stroke-width="12" stroke-linecap="round"/>
  <text x="604" y="188" fill="#f8fafc" font-family="Inter,Arial,sans-serif" font-size="42" font-weight="300">Fullstack Context</text>
</svg>
