<svg xmlns="http://www.w3.org/2000/svg" width="1600" height="1000" viewBox="0 0 1600 1000" role="img" aria-labelledby="title desc">
  <title id="title">Maintenance Operations System</title>
  <desc id="desc">Abstract dark maintenance workflow interface placeholder.</desc>
  <rect width="1600" height="1000" fill="#090b10"/>
  <circle cx="1180" cy="260" r="380" fill="#22c55e" opacity=".14"/>
  <circle cx="320" cy="760" r="320" fill="#f97316" opacity=".13"/>
  <rect x="150" y="130" width="1300" height="740" rx="36" fill="#11151d" stroke="#ffffff" stroke-opacity=".12"/>
  <rect x="220" y="210" width="340" height="580" rx="24" fill="#0c1017" stroke="#ffffff" stroke-opacity=".08"/>
  <rect x="620" y="210" width="760" height="118" rx="22" fill="#171c25" stroke="#ffffff" stroke-opacity=".08"/>
  <rect x="620" y="382" width="220" height="296" rx="22" fill="#171c25" stroke="#ffffff" stroke-opacity=".08"/>
  <rect x="890" y="382" width="220" height="296" rx="22" fill="#171c25" stroke="#ffffff" stroke-opacity=".08"/>
  <rect x="1160" y="382" width="220" height="296" rx="22" fill="#171c25" stroke="#ffffff" stroke-opacity=".08"/>
  <path d="M840 530h50M1110 530h50" stroke="#f8fafc" stroke-opacity=".26" stroke-width="10" stroke-linecap="round"/>
  <path d="M675 478h110M675 538h82M675 598h126M945 478h104M945 538h132M945 598h74M1215 478h96M1215 538h120M1215 598h84" stroke="#f8fafc" stroke-opacity=".35" stroke-width="10" stroke-linecap="round"/>
  <path d="M280 302h196M280 386h130M280 470h180M280 554h112" stroke="#f8fafc" stroke-opacity=".28" stroke-width="12" stroke-linecap="round"/>
  <text x="656" y="288" fill="#f8fafc" font-family="Inter,Arial,sans-serif" font-size="42" font-weight="300">Maintenance System</text>
</svg>
