<svg xmlns="http://www.w3.org/2000/svg" width="1600" height="1000" viewBox="0 0 1600 1000" role="img" aria-labelledby="title desc">
  <title id="title">Freelance Web Application</title>
  <desc id="desc">Abstract dark fullstack web application placeholder.</desc>
  <rect width="1600" height="1000" fill="#090b10"/>
  <circle cx="1120" cy="290" r="380" fill="#fb7185" opacity=".12"/>
  <circle cx="420" cy="720" r="360" fill="#22d3ee" opacity=".12"/>
  <rect x="160" y="140" width="1280" height="720" rx="36" fill="#11151d" stroke="#ffffff" stroke-opacity=".12"/>
  <rect x="230" y="216" width="1140" height="92" rx="46" fill="#0c1017" stroke="#ffffff" stroke-opacity=".08"/>
  <rect x="230" y="374" width="350" height="358" rx="28" fill="#171c25" stroke="#ffffff" stroke-opacity=".08"/>
  <rect x="634" y="374" width="350" height="358" rx="28" fill="#171c25" stroke="#ffffff" stroke-opacity=".08"/>
  <rect x="1038" y="374" width="332" height="358" rx="28" fill="#171c25" stroke="#ffffff" stroke-opacity=".08"/>
  <path d="M294 476h220M294 562h156M294 648h196M698 476h220M698 562h170M698 648h120M1102 476h190M1102 562h132M1102 648h160" stroke="#f8fafc" stroke-opacity=".34" stroke-width="12" stroke-linecap="round"/>
  <path d="M292 262h280M1210 262h86" stroke="#f8fafc" stroke-opacity=".42" stroke-width="12" stroke-linecap="round"/>
  <text x="664" y="262" fill="#f8fafc" font-family="Inter,Arial,sans-serif" font-size="42" font-weight="300">Freelance Web App</text>
</svg>
