<svg xmlns="http://www.w3.org/2000/svg" width="1600" height="1000" viewBox="0 0 1600 1000" role="img" aria-labelledby="title desc">
  <title id="title">Company Profile Website</title>
  <desc id="desc">Abstract dark company profile website placeholder.</desc>
  <rect width="1600" height="1000" fill="#090a0f"/>
  <circle cx="1080" cy="520" r="470" fill="#a78bfa" opacity=".12"/>
  <circle cx="330" cy="260" r="300" fill="#38bdf8" opacity=".12"/>
  <rect x="160" y="150" width="1280" height="700" rx="34" fill="#11151d" stroke="#ffffff" stroke-opacity=".12"/>
  <rect x="230" y="220" width="1140" height="104" rx="52" fill="#0d1118" stroke="#ffffff" stroke-opacity=".08"/>
  <rect x="230" y="390" width="500" height="330" rx="28" fill="#171c25" stroke="#ffffff" stroke-opacity=".08"/>
  <rect x="790" y="390" width="580" height="150" rx="26" fill="#171c25" stroke="#ffffff" stroke-opacity=".08"/>
  <rect x="790" y="590" width="260" height="130" rx="24" fill="#171c25" stroke="#ffffff" stroke-opacity=".08"/>
  <rect x="1110" y="590" width="260" height="130" rx="24" fill="#171c25" stroke="#ffffff" stroke-opacity=".08"/>
  <path d="M288 462h314M288 542h236M288 622h278" stroke="#f8fafc" stroke-opacity=".42" stroke-width="14" stroke-linecap="round"/>
  <path d="M854 462h394M854 658h118M1174 658h118" stroke="#f8fafc" stroke-opacity=".3" stroke-width="12" stroke-linecap="round"/>
  <text x="286" y="288" fill="#f8fafc" font-family="Inter,Arial,sans-serif" font-size="42" font-weight="300">Company Profile</text>
</svg>
